PathFileType	4	(X/Y/Z)	C:\Users\Willi\SynologyDrive\Deimel_MSc_Deadlift\Athlete_03\Athlete_3_22_07_06\dl_75\marker_experimental.trc
DataRate	CameraRate	NumFrames	NumMarkers	Units	OrigDataRate	OrigDataStartFrame	OrigNumFrames
200.000000	200.000000	4	59	mm	200.000000	713	2855
Frame#	Time	BR			GLAB			RFHD			LFHD			C7			T6			SPINMOL			SPINM2			SPINM3			T12			BELTOL			BELT2			BELT3			SACROL			SACR2			SACR3			LTHOL			LTH2			LTH3			LSHAOL			LSHA2			LSHA3			LHEE			LTOE			LM5			RTHOL			RTH2			RTH3			RSHAOL			RSHA2			RSHA3			RHEE			RTOE			RM5			STRN			XIPH			LACR			LUAOL			LUA2			LUA3			LLAOL			LLA2			LLA3			LWRU			RACR			RUAOL			RUA2			RUA3			RLAOL			RLA2			RLA3			RWRU			BL			USERMO0			USERMO1			USERMO2			USERMO3			USERMO4			USERMO5			
		X1	Y1	Z1	X2	Y2	Z2	X3	Y3	Z3	X4	Y4	Z4	X5	Y5	Z5	X6	Y6	Z6	X7	Y7	Z7	X8	Y8	Z8	X9	Y9	Z9	X10	Y10	Z10	X11	Y11	Z11	X12	Y12	Z12	X13	Y13	Z13	X14	Y14	Z14	X15	Y15	Z15	X16	Y16	Z16	X17	Y17	Z17	X18	Y18	Z18	X19	Y19	Z19	X20	Y20	Z20	X21	Y21	Z21	X22	Y22	Z22	X23	Y23	Z23	X24	Y24	Z24	X25	Y25	Z25	X26	Y26	Z26	X27	Y27	Z27	X28	Y28	Z28	X29	Y29	Z29	X30	Y30	Z30	X31	Y31	Z31	X32	Y32	Z32	X33	Y33	Z33	X34	Y34	Z34	X35	Y35	Z35	X36	Y36	Z36	X37	Y37	Z37	X38	Y38	Z38	X39	Y39	Z39	X40	Y40	Z40	X41	Y41	Z41	X42	Y42	Z42	X43	Y43	Z43	X44	Y44	Z44	X45	Y45	Z45	X46	Y46	Z46	X47	Y47	Z47	X48	Y48	Z48	X49	Y49	Z49	X50	Y50	Z50	X51	Y51	Z51	X52	Y52	Z52	X53	Y53	Z53	X54	Y54	Z54	X55	Y55	Z55	X56	Y56	Z56	X57	Y57	Z57	X58	Y58	Z58	X59	Y59	Z59	

714	3.565	200.5860900878906	251.8760375976562	-101.6248474121094	552.2674560546875	765.1301879882814	-1207.781860351562	554.2930908203125	823.5903930664064	-1128.872924804688	556.0068969726562	831.3229980468751	-1283.390625	408.52099609375	969.0010986328126	-1207.185913085938	214.8099365234375	1033.625366210938	-1225.184936523438	179.3218231201172	1041.973388671875	-1228.69580078125	116.8349761962891	1042.359497070312	-1178.542724609375	117.1584243774414	1040.606689453125	-1228.393798828125	60.7465934753418	1028.212646484375	-1231.868286132812	30.29140663146973	1054.403930664062	-1231.161743164062	-28.8491382598877	1039.861572265625	-1179.339111328125	-31.26319885253906	1045.093627929688	-1229.132202148438	-139.6423034667969	970.2017211914064	-1254.979370117188	-130.2021026611328	973.7670898437501	-1204.865356445312	-187.8734436035156	944.4819335937501	-1217.169311523438	-9.708469390869141	708.7198486328126	-1452.06689453125	-19.24508476257324	629.9149780273439	-1442.067138671875	23.36042976379395	656.6900634765626	-1447.375122070312	85.47674560546875	338.6355895996095	-1432.2626953125	41.91244888305664	274.0113830566407	-1422.749755859375	91.40715026855469	277.9647521972657	-1423.176147460938	2.274601459503174	64.95153045654305	-1320.849853515625	213.5566711425781	73.89234924316415	-1324.564086914062	167.9693145751953	57.60851669311532	-1429.470947265625	-15.53421401977539	683.7801513671876	-1003.0302734375	59.07934951782227	655.6484375000001	-997.0687866210938	15.93037891387939	630.1256103515626	-1000.00830078125	51.57341003417969	340.3967285156251	-997.0790405273438	87.99252319335938	269.8817443847657	-1000.834411621094	39.53450393676758	281.2695922851563	-1008.648315429688	-5.912477970123291	58.40016174316413	-1109.000244140625	205.7820892333984	84.22859954833991	-1093.3251953125	162.2902069091797	70.18692016601568	-998.11865234375	334.9510803222656	807.5095825195314	-1214.994262695312	182.1317291259766	771.0076293945314	-1212.796752929688	375.8846740722656	845.8383178710939	-1407.479248046875	318.8573303222656	736.5261840820314	-1485.23779296875	275.4586791992188	691.8822631835939	-1509.200927734375	313.7484130859375	670.8565063476564	-1481.87158203125	251.6400299072266	459.2175903320314	-1487.427001953125	222.7615509033203	402.0868530273439	-1502.048461914062	248.9588623046875	400.9041442871095	-1459.57421875	215.4533843994141	311.8282165527345	-1479.670776367188	360.8095397949219	845.4003295898439	-1024.764770507812	306.2105407714844	703.9557495117189	-976.7394409179688	298.0931701660156	645.1387329101564	-1004.170043945312	289.0621948242188	643.8694458007814	-954.7727661132812	249.0480499267578	453.7116088867188	-960.436279296875	242.0030670166016	399.3255920410157	-995.0458374023438	232.9208374023438	393.4687500000001	-944.8597412109375	216.0369110107422	321.4310302734376	-947.1124267578125	182.6754760742188	248.4732360839845	-2324.63916015625	0.006613740231841803	0.2103109955787659	-0.386258989572525	0.2949410080909729	2.936589956283569	-0.2883929908275603	2.823400020599365	0.03657099977135658	-0.0379410982131958	0.007471819873899221	0.008389290422201157	-0.01069079991430044	0.01388659980148077	0.008651049807667732	-0.006184149999171495	0.007112280000001192	0	0	
715	3.57	200.6071624755859	251.8848724365234	-101.6260681152344	552.400390625	764.8809814453126	-1207.82470703125	554.4625244140625	823.3204345703126	-1128.886474609375	556.1318969726562	831.0692138671876	-1283.403076171875	408.7702941894531	968.8058471679689	-1207.102294921875	215.0900726318359	1033.561767578125	-1225.101318359375	179.5932312011719	1041.938110351562	-1228.606811523438	117.1062088012695	1042.326171875	-1178.447998046875	117.4292373657227	1040.59375	-1228.305908203125	60.98978042602539	1028.222045898438	-1231.785034179688	30.52874565124512	1054.437866210938	-1231.08642578125	-28.6318531036377	1039.906982421875	-1179.284790039062	-31.0279426574707	1045.146606445312	-1229.07861328125	-139.4270477294922	970.2728271484376	-1254.966430664062	-129.9994201660156	973.8225708007814	-1204.845458984375	-187.6792907714844	944.5604248046876	-1217.180908203125	-9.500454902648926	708.7909545898439	-1452.06396484375	-19.06530952453613	629.9837646484376	-1442.092651367188	23.54820823669434	656.7479858398439	-1447.382934570312	85.53880310058594	338.6531677246095	-1432.302368164062	41.95741271972656	274.0346984863282	-1422.777465820312	91.45227813720703	277.9744262695314	-1423.213134765625	2.277789115905762	64.95082855224618	-1320.86328125	213.5570526123047	73.90210723876962	-1324.568359375	167.9684295654297	57.60338592529305	-1429.470581054688	-15.60304164886475	683.7354736328126	-1002.916381835938	58.99416351318359	655.5899047851564	-996.8844604492188	15.84868717193604	630.0751953125001	-999.8897705078125	51.6027717590332	340.3268127441407	-997.025634765625	88.11150360107422	269.8601684570313	-1000.739562988281	39.65231323242188	281.1938171386719	-1008.623474121094	-5.727224349975586	58.55644607543952	-1109.054565429688	206.0230865478516	83.44712829589851	-1093.112548828125	162.4008026123047	69.75229644775396	-997.8950805664062	335.0977172851562	807.3647460937501	-1214.97412109375	182.2545471191406	770.9425048828126	-1212.751342773438	376.0880126953125	845.7465209960939	-1407.4013671875	319.2999267578125	736.4071655273439	-1485.131103515625	275.9811401367188	691.7286376953126	-1509.162719726562	314.2096862792969	670.7434082031251	-1481.73095703125	251.9805145263672	459.0909729003907	-1487.177734375	223.1031188964844	401.9452514648439	-1501.806030273438	249.1542510986328	400.8062744140626	-1459.233032226562	215.6462860107422	311.7273254394532	-1479.342163085938	360.9753112792969	845.1401977539064	-1024.749267578125	306.3053894042969	703.7667236328126	-976.7454833984375	298.0767517089844	644.9543457031251	-1004.142150878906	289.1524658203125	643.6973266601564	-954.7326049804688	249.0302124023438	453.5833435058594	-960.5492553710938	241.8912658691406	399.2755432128907	-995.2572021484375	232.8955383300781	393.3211669921876	-945.05615234375	216.0731964111328	321.3397827148438	-947.4300537109375	182.6713256835938	248.4696350097658	-2324.624755859375	0.00652612978592515	0.2068040072917939	-0.3852469921112061	0.2987290024757385	2.935100078582764	-0.2858279943466185	2.815229892730713	0.03614019975066185	-0.0386756993830204	0.007460339926183224	0.008462320081889629	-0.01064150035381317	0.01372940000146627	0.008831460028886795	-0.00616397988051176	0.007045989856123924	0	0	
716	3.575	200.6290588378906	251.8934326171875	-101.6276931762695	552.523681640625	764.6353759765626	-1207.862426757812	554.6249389648438	823.0547485351564	-1128.893920898438	556.2470092773438	830.8226318359376	-1283.408935546875	409.0102844238281	968.6209106445314	-1207.00634765625	215.3588409423828	1033.503051757812	-1225.004516601562	179.853515625	1041.906860351562	-1228.505249023438	117.3654251098633	1042.294799804688	-1178.342651367188	117.6889266967773	1040.585327148438	-1228.20751953125	61.22179412841797	1028.235229492188	-1231.69580078125	30.75414848327637	1054.4736328125	-1231.005004882812	-28.42634010314941	1039.952026367188	-1179.224243164062	-30.80420303344727	1045.199951171875	-1229.019165039062	-139.2216033935547	970.3413085937501	-1254.949951171875	-129.8071746826172	973.8761596679689	-1204.82177734375	-187.4945983886719	944.6357421875001	-1217.1884765625	-9.29716682434082	708.8604736328126	-1452.052612304688	-18.8901309967041	630.0510864257814	-1442.110595703125	23.73120880126953	656.8043212890626	-1447.382934570312	85.59750366210938	338.6738281250001	-1432.340454101562	41.99897766113281	274.058563232422	-1422.800537109375	91.49392700195312	277.984344482422	-1423.243896484375	2.280073642730713	64.94901275634774	-1320.876586914062	213.5573425292969	73.9114303588868	-1324.571044921875	167.9676513671875	57.5991973876954	-1429.468627929688	-15.67556953430176	683.6807250976564	-1002.806762695312	58.90634155273438	655.5228271484376	-996.708740234375	15.76539707183838	630.0153808593751	-999.7821044921875	51.65413284301758	340.2478332519532	-996.9916381835938	88.26062774658203	269.8336181640626	-1000.668212890625	39.79861831665039	281.1076660156251	-1008.617004394531	-5.526729106903076	58.72120666503913	-1109.123168945312	206.2841033935547	82.61660003662116	-1092.899658203125	162.5159606933594	69.32217407226568	-997.668212890625	335.2411193847656	807.2327270507814	-1214.948486328125	182.3767547607422	770.8814697265626	-1212.70703125	376.2951049804688	845.6733398437501	-1407.308349609375	319.7779235839844	736.2924194335939	-1484.997314453125	276.5419006347656	691.5776367187501	-1509.10302734375	314.700439453125	670.6358032226564	-1481.556274414062	252.3378753662109	458.9795837402345	-1486.915283203125	223.4591674804688	401.8169250488282	-1501.55126953125	249.3602752685547	400.7214355468751	-1458.877075195312	215.8543701171875	311.6395263671876	-1479.00732421875	361.1363830566406	844.8800659179689	-1024.734375	306.4153442382812	703.5794067382814	-976.7537231445312	298.0617065429688	644.7693481445314	-1004.106750488281	289.2628784179688	643.5275268554689	-954.682861328125	249.0438690185547	453.4568481445313	-960.6419677734375	241.8099365234375	399.2281799316407	-995.4495239257812	232.9065856933594	393.1735839843751	-945.23193359375	216.1515045166016	321.2458801269532	-947.7320556640625	182.6681060791016	248.4673767089845	-2324.61328125	0.006462439894676208	0.2039490044116974	-0.3836899995803833	0.3025079965591431	2.93356990814209	-0.2833720147609709	2.809000015258789	0.03582759946584702	-0.03916370123624802	0.007470970042049885	0.008508780039846897	-0.01057210005819798	0.01355409994721413	0.008987080305814743	-0.006169170141220092	0.006986290216445923	0	0	
717	3.58	200.6517486572266	251.9016876220703	-101.6297988891601	552.6376342773438	764.3942871093751	-1207.893188476562	554.780029296875	822.7944335937501	-1128.894653320312	556.3524169921875	830.5839843750001	-1283.407836914062	409.2404174804688	968.4464111328126	-1206.898071289062	215.6158294677734	1033.448974609375	-1224.89453125	180.1026000976562	1041.879760742188	-1228.391479492188	117.6122360229492	1042.265869140625	-1178.2275390625	117.9373626708984	1040.581665039062	-1228.099365234375	61.4427375793457	1028.252685546875	-1231.601318359375	30.96798324584961	1054.511352539062	-1230.918212890625	-28.23213958740234	1039.997314453125	-1179.157836914062	-30.59176445007324	1045.254028320312	-1228.953979492188	-139.0257110595703	970.4078369140626	-1254.929565429688	-129.6249389648438	973.9282836914064	-1204.794189453125	-187.3189697265625	944.7084350585939	-1217.191528320312	-9.099681854248047	708.9281616210939	-1452.032470703125	-18.72055053710938	630.1166992187501	-1442.120239257812	23.90841674804688	656.8589477539064	-1447.37451171875	85.65254211425781	338.6976013183595	-1432.376220703125	42.03689956665039	274.0828552246095	-1422.81787109375	91.53182220458984	277.994598388672	-1423.267822265625	2.28150463104248	64.94606781005868	-1320.889526367188	213.5575866699219	73.92018127441415	-1324.572021484375	167.9670562744141	57.59614181518563	-1429.465087890625	-15.74869632720947	683.6165771484376	-1002.703796386719	58.81925964355469	655.4476928710939	-996.545654296875	15.68370628356934	629.9467773437501	-999.6879272460938	51.72665405273438	340.1612243652344	-996.9788208007812	88.43732452392578	269.8020019531251	-1000.623474121094	39.97087097167969	281.0123901367188	-1008.631408691406	-5.31446361541748	58.89120101928718	-1109.205688476562	206.5603485107422	81.75345611572273	-1092.692504882812	162.6338806152344	68.90707397460943	-997.4436645507812	335.3800048828125	807.1130981445314	-1214.916259765625	182.4969787597656	770.8248291015626	-1212.664184570312	376.5053100585938	845.6170654296876	-1407.199340820312	320.2864074707031	736.1813964843751	-1484.837036132812	277.1334838867188	691.4299926757814	-1509.021362304688	315.2133178710938	670.5330200195314	-1481.348388671875	252.7046203613281	458.8843383789064	-1486.641967773438	223.8236236572266	401.703338623047	-1501.2861328125	249.5731048583984	400.6511230468751	-1458.510009765625	216.0736541748047	311.5659484863282	-1478.66796875	361.2917175292969	844.6218261718751	-1024.71728515625	306.53857421875	703.3954467773439	-976.75830078125	298.0487060546875	644.5850219726564	-1004.058166503906	289.3915100097656	643.3622436523439	-954.6182861328125	249.0877838134766	453.3324279785157	-960.7091674804688	241.7598571777344	399.1835021972657	-995.6175537109375	232.95166015625	393.0267639160157	-945.3829956054688	216.2699432373047	321.1496887207032	-948.0150146484375	182.6657867431641	248.4661560058595	-2324.60400390625	0.006422029808163643	0.201883003115654	-0.3815689980983734	0.3061999976634979	2.931989908218384	-0.2811569869518278	2.805530071258545	0.03567510098218918	-0.03942940011620522	0.007498569786548615	0.008529280312359333	-0.01047980040311813	0.01336969994008541	0.009121459908783436	-0.006200099829584359	0.006929859984666109	0	0	
